/* XPM */
static char *PinballCheat_xpm[] = {
/* columns rows colors chars-per-pixel */
"32 32 631 2",
"%  c #C8CDD9",
"4X c #BFCADA",
".  c #CBCEDA",
"C+ c #92B5D9",
"[  c #CED2DC",
"5O c #9BBBDB",
"+@ c #283968",
"N+ c #C8D3E1",
"NO c #A7C5E1",
"3. c #D7DBE4",
"1+ c #9EC2E3",
"j+ c #A1C6E5",
"'X c #C5D8E9",
"2  c #E3E5EB",
"4O c #B3D2EB",
"oO c #374775",
"^  c #B9D4EC",
"V  c #D1DFED",
"i. c #B6D6F0",
"P  c #E9EDF3",
"zo c #43517C",
"d+ c #6BA8EB",
"m  c #EFF2F5",
"no c #B0D4F2",
"R@ c #43547F",
"R  c #F5F7F9",
"mo c #B6DCF8",
"AO c #E3F1FC",
"t. c #C8E5FB",
"iX c #C5E4FB",
",X c #B9E0FB",
"sO c #C2E3FC",
"aO c #BCE1FC",
":O c #B6DFFC",
"Zo c #B3DEFC",
"b. c #F2F9FE",
"|X c #DAEEFD",
"v. c #F8FBFE",
"fX c #B6DFFD",
"A@ c #52658D",
"G@ c #4F648E",
"wO c #49628F",
"bX c #526891",
"x+ c #556992",
"H@ c #586D95",
"h@ c #5B6E95",
"P@ c #61769C",
"q@ c #61769D",
"@O c #55729F",
"vO c #6179A1",
"C@ c #677EA4",
"W+ c #7686A6",
"D. c #97A3BB",
"J. c #A3AABE",
"4@ c #7F9BBE",
"s. c #9AA7BF",
"d@ c #7F9BBF",
"5X c #9AAAC2",
"&@ c #97ACC7",
"cX c #A6B7CD",
"lO c #4F8ED3",
";o c #ACC2DA",
"$  c #D0D4DE",
"'O c #4688D5",
"Lo c #A6C3DF",
"5  c #D3D8E2",
"l  c #30406C",
"To c #30406F",
"@  c #DCDEE6",
"p. c #B5CEE6",
"3  c #DFE2E9",
"1X c #7CB2E4",
"C  c #C1D5E8",
"K  c #DFE2EA",
"/+ c #C7DAEB",
"-o c #CADBEB",
"1  c #E5E7ED",
"u  c #E8EBF0",
"V+ c #DCE7F1",
"<+ c #ACD1EF",
"~O c #8BBAEB",
"GO c #73B2EB",
"tX c #D3E4F3",
"s+ c #7CB5EF",
"u+ c #B2D3F3",
"_O c #73B2EF",
"Jo c #D9E9F6",
"O@ c #485781",
"&O c #9DCFF5",
"W@ c #4B5B84",
"k  c #4E5C84",
"jO c #DCEDFB",
"hO c #EBF5FC",
"Go c #EEF6FC",
"GX c #91C8F7",
"V. c #B8DEFA",
"fO c #D3EAFC",
"SX c #EBF5FD",
"_o c #ACDAFC",
"(o c #A3D7FC",
"Vo c #A6D8FC",
"dX c #C1E4FD",
"DX c #B2D9FB",
"to c #B2DCFC",
"Xo c #C4E5FD",
"Y@ c #51638B",
"Ro c #485D8A",
"(X c #636F92",
"{. c #5A6C93",
"8+ c #6C7B9B",
"4+ c #60779E",
"q  c #7581A1",
"n+ c #7885A3",
".@ c #728CB0",
"D  c #7E90B0",
"b@ c #728CB2",
"3+ c #7894B9",
"=  c #A2ABC0",
"9  c #9CA9C1",
" @ c #84A1C4",
"NX c #A2AEC5",
"r@ c #8AA6C6",
"qX c #ABB4C7",
"MO c #8DAAC9",
"0O c #0B1D53",
"O+ c #A8B6CB",
"K. c #B4BACB",
"0+ c #B7C1D2",
"&  c #BDC3D2",
"u@ c #93B2D3",
"4o c #9FB9D5",
"`X c #B1C2D8",
"k. c #C9CDD9",
"   c None",
"L. c #C9CDDA",
"BX c #BDC9DA",
"|. c #233465",
"6  c #C9D0DD",
"}+ c #9CBEDF",
"qO c #23376A",
"Z  c #B1C8E0",
"/X c #2C3D6D",
"k@ c #324270",
",@ c #A5C7E5",
"P. c #DBDFE7",
"R+ c #354672",
"a  c #D5DDE8",
"lo c #324271",
"zO c #ABCCE8",
"B+ c #D5E0EB",
"$+ c #A8C8E8",
"nX c #324574",
"9@ c #384A77",
"f+ c #579BE4",
"<  c #E7E9EE",
"z. c #E4E8EF",
"D@ c #3E4F7B",
"`O c #5DA0E8",
"OX c #EAEDF2",
">+ c #5D9DE8",
"N  c #E7ECF3",
"EX c #E1EAF3",
"do c #DEECF6",
"n  c #F0F2F6",
"I  c #EDF1F6",
"i+ c #ABCFF3",
"Q  c #E4EEF7",
"E@ c #475882",
"Y  c #F3F6F9",
"rX c #F0F5F9",
"T. c #E4EBF7",
"*o c #EDF4FA",
"Ho c #E7F2FB",
"TX c #E4F1FB",
"gO c #DBEEFC",
"io c #DEEFFC",
"r. c #D5ECFC",
"9. c #F9FBFD",
">. c #536287",
";O c #AEDCFC",
"HX c #D5ECFD",
"-X c #CCE9FD",
"%X c #F3F9FE",
"W. c #EDF7FE",
"B. c #BAE0FC",
"*O c #2779EB",
"No c #AEDCFD",
">X c #B4DEFD",
"Uo c #4A5F8B",
"g@ c #687EA5",
"Io c #6884AB",
"MX c #8691AE",
"h  c #8393B1",
"vX c #7A90B2",
"[. c #8697B3",
"%@ c #869AB8",
"m@ c #7A96BA",
"m+ c #9BA7BE",
"(+ c #6291C5",
".X c #B0B7C9",
"<. c #16285B",
"X  c #C2C6D4",
"_+ c #5991CF",
"XX c #C8CEDA",
"_. c #629DD9",
"-@ c #ADC8E1",
"8X c #283A6B",
"<@ c #A1C4E2",
"s  c #C8D4E3",
",. c #2E3F6D",
">@ c #AACAE6",
"=. c #ADCBE6",
"WX c #CBD8E8",
"+  c #E0E2E9",
"eX c #DAE0E9",
"S+ c #80B9E8",
"}. c #344775",
"@+ c #D4E1ED",
"t+ c #B9CFEB",
"t  c #E9EBF0",
"7+ c #43527B",
"!O c #CEE2F3",
"yO c #A4D1F2",
"CX c #E0EBF4",
"^O c #98C1EF",
"&. c #BCDCF4",
"S@ c #495A82",
"C. c #BCDCF6",
"YX c #86C1F3",
"T@ c #495A83",
"p+ c #9BC5F3",
"~o c #A4D4F7",
"RX c #E9F1F9",
"@. c #EFF6FB",
"). c #BFE0F9",
"y. c #BCDFF9",
"*+ c #EFF6FC",
"Fo c #E9F4FC",
"+. c #F5F8FC",
"AX c #ECF5FC",
"5+ c #4C5E87",
"=O c #A1D6FB",
"^o c #A7D8FB",
"So c #CEE8FC",
"e. c #E3F2FD",
"/o c #A4D7FC",
"Co c #A7D8FC",
"eo c #AAD9FC",
"9o c #CBE7FD",
"N. c #C2E4FD",
";X c #BFE3FD",
"^. c #BCE2FD",
"Q. c #E3F2FE",
".o c #6BB2F7",
"qo c #4A9BF7",
":  c #737D9D",
"2o c #6A7DA1",
"7O c #647EA6",
";  c #828BA8",
")X c #7988A8",
"w@ c #7389AD",
"5@ c #7088AD",
"B@ c #7690B5",
"n@ c #7693B7",
"Q+ c #94A3BD",
"!X c #859BBC",
"EO c #8EA1BE",
"s@ c #88A5C7",
"]. c #AFBBCE",
"LO c #8BACD0",
"*@ c #A3BAD4",
"'+ c #4683CC",
"A  c #A3BAD5",
"WO c #ACC0D8",
"d  c #B8C7DB",
"zX c #A6C1DC",
"1@ c #9ABDDD",
"'  c #2D3D6B",
"Z+ c #91BAE0",
"6. c #C1D3E4",
"{  c #D6DAE4",
"L+ c #A0C5E4",
"tO c #9AC3E6",
"5o c #B5CFE7",
"z  c #E2E4EB",
"@@ c #394A77",
"w+ c #DCE5EE",
"fo c #C7DBED",
"i  c #E5E8EE",
"@X c #DCE8EF",
",  c #E8E9EF",
"Y. c #D9E4EF",
"%+ c #B5CFEF",
"a+ c #8BBEEF",
"!  c #D6E6F4",
"uX c #D3E8F7",
"z@ c #455783",
"Y+ c #4B5C85",
"#. c #E5F1FB",
";+ c #E2F0FC",
"FO c #DCEEFC",
"(. c #B8DFFB",
"0. c #FAFBFD",
"pO c #B5DEFC",
"sX c #CDE9FD",
"&X c #EEF7FE",
"pX c #EBF6FE",
"UX c #64A8F3",
"Mo c #B8DFFC",
"@o c #B2DDFC",
"PX c #AFDCFC",
"Oo c #ACDBFC",
"o@ c #4E6089",
"gX c #B2DDFD",
"FX c #A6D3FB",
"#@ c #54658D",
"U+ c #5D7198",
"I@ c #5D7199",
"IO c #5A7099",
"X@ c #60759C",
"~X c #5D749D",
"d. c #7886A4",
">o c #637CA4",
"0X c #909AB2",
"co c #7591B6",
"cO c #7B99BF",
"6O c #81A1C4",
"g  c #96A8C4",
"Po c #87A6C8",
"Wo c #7EA3CA",
"o  c #B7BCCC",
"!+ c #ABBBD0",
"2+ c #8DAED0",
"JO c #3F7CC8",
"i@ c #93B3D4",
"6+ c #203161",
"nO c #1D3061",
"QX c #ABBED6",
"[O c #96BADB",
"go c #ABC4DD",
"|o c #A2C1DE",
"8@ c #2C3E6C",
"l. c #D8DCE5",
":@ c #AECBE6",
"VX c #D2DDE9",
"l@ c #384875",
"O  c #E4E6EC",
"p  c #DEE4EC",
"x. c #CFDCEB",
"K+ c #ABD0ED",
"D+ c #75AFE8",
"xX c #DEE7F0",
"&+ c #BAD5EF",
"B  c #DEE7F1",
" + c #41517C",
"^X c #3B4F7D",
"=o c #E1EBF5",
"G. c #44557F",
"]X c #D5E4F4",
"#X c #E4EFF7",
"U. c #F0F3F7",
"u. c #B7DAF6",
"%. c #C9E3F7",
"[X c #DBECF9",
"$. c #D8EBF9",
"7. c #F3F7FA",
"$o c #78B9F3",
"F@ c #475984",
"3O c #D8EBFA",
"7X c #445884",
"o. c #F6F8FB",
"uo c #75B5F3",
"b+ c #505F86",
"SO c #EDF5FC",
"2O c #E4F2FC",
"]o c #E7F3FC",
"{X c #DEF0FC",
"R. c #F9FCFD",
"j@ c #4D5E87",
"-+ c #E7F3FD",
"ZO c #CFE8FC",
",O c #CCE7FC",
"`o c #C3E4FC",
"yo c #C0E3FC",
"/. c #B7E0FC",
"-O c #A8D8FC",
"1o c #536088",
"`  c #536389",
":X c #B7E0FD",
"m. c #DEF0FE",
"IX c #4292F3",
"6@ c #5F739B",
"F. c #6E7E9E",
"L@ c #62779E",
"c@ c #5F769E",
"$@ c #6E81A3",
"6X c #6E81A4",
"z+ c #6B83A9",
"}O c #6B86AC",
"e@ c #8099BB",
"{O c #83A3C6",
"ho c #89A5C6",
"*  c #B0B8CA",
"j. c #B9BECD",
"]  c #132558",
"7  c #BCC5D6",
"++ c #C2D0DF",
"H+ c #4D91D9",
"g. c #2B3C6B",
"q+ c #CED7E3",
"#  c #D7DAE3",
"BO c #5092DC",
"/  c #ADC9E4",
"HO c #599BE0",
"G+ c #5998E0",
"QO c #BFD5E9",
"Yo c #344573",
"3X c #D7E0EA",
"F+ c #68A6E4",
"G  c #3A4A75",
"9O c #3A4A77",
"%O c #95C4EB",
"}o c #BCD7ED",
"lX c #95C1EB",
"h+ c #ADD2EF",
":+ c #71B2EB",
"x  c #E9ECF1",
"|  c #E6EBF1",
"y+ c #B9D3EF",
"~  c #C8DEF1",
"b  c #EFF1F5",
"e  c #4C5980",
" . c #ECF0F6",
"+X c #F2F5F8",
"kX c #71AFEF",
"!@ c #495882",
"uO c #3583E8",
"T  c #F5F6F9",
"E  c #F2F5F9",
"ZX c #E9F2F9",
"=+ c #ECF6FC",
"O. c #F8FAFC",
"ao c #EFF7FC",
")O c #DAEDFC",
"q. c #F5F9FD",
"8o c #CBE8FC",
"iO c #3B8EEF",
"hX c #B3DDFC",
"+o c #ADDBFC",
"#o c #56A3F3",
"ro c #AADAFC",
"JX c #CBE8FD",
"7@ c #4F6089",
"LX c #B0DCFD",
"wo c #ADDBFD",
"E+ c #55658B",
"X+ c #58668B",
"w  c #5E6B8E",
"j  c #6A789B",
"v@ c #6A84AA",
"mO c #6D85AA",
".O c #6783AB",
"N@ c #7995B9",
"[+ c #346FBA",
";. c #94A7C2",
"P+ c #85A2C6",
"3@ c #8BAACC",
"t@ c #91ACCD",
")+ c #5E92CC",
"rO c #88ACD1",
"vo c #8EAED1",
"M+ c #B8C2D4",
"2X c #91B2D3",
"h. c #1B2C5F",
"2@ c #94B6D6",
"`+ c #528BCF",
"xO c #94B6D7",
"T+ c #243564",
"2. c #CACEDA",
"wX c #C4CCDA",
"$O c #88B2D9",
"H. c #243566",
"v+ c #2D3E6B",
"r+ c #AFC8E0",
"'. c #CAD4E1",
",+ c #498ED9",
".+ c #2D3E6C",
"g+ c #498BD9",
"Qo c #91BBE1",
";@ c #AFCBE4",
"KO c #A0C3E3",
"J  c #D9DCE5",
"^+ c #C4D5E6",
"A+ c #8EBAE4",
"oX c #DCE0E9",
"}  c #DFE4EB",
">  c #E8EAEF",
"L  c #E5E9EF",
"TO c #3C4C79",
"r  c #E8EAF0",
"!o c #9DCBEF",
"Z. c #BED9F0",
"c  c #EBEEF3",
"5. c #E8EDF3",
"e+ c #E5ECF4",
"#+ c #DFEAF4",
"6o c #C1DDF3",
"c+ c #45557F",
"<X c #5BA0EB",
"{o c #D3E6F7",
"CO c #64A6EF",
"X. c #F4F7FA",
"Q@ c #4B5A84",
",o c #425784",
"f. c #4E5E85",
"/O c #EEF5FC",
"DO c #E5F2FC",
"Do c #DCEFFC",
"&o c #EBF4FC",
"%o c #E2F1FC",
"(O c #E2F1FD",
"dO c #CAE6FC",
">O c #BEE2FC",
"Ao c #C1E3FC",
"}X c #DCEFFD",
"aX c #D9EEFD",
"c. c #FAFCFE",
"M. c #D0EBFD",
"$X c #F7FBFE",
"E. c #F4FAFE",
")o c #A3D6FC",
"=X c #D9EEFE",
"!. c #D6EDFE",
" o c #7CBAF7",
"oo c #BBE1FD",
"KX c #B5DFFD",
"jX c #4C9BF3",
"XO c #4B608B",
"x@ c #546991",
"U@ c #576A92",
"F  c #607095",
"xo c #5A6E97",
"Z@ c #5D7299",
"J@ c #5D729B",
"RO c #66789C",
"K@ c #60769E",
":. c #7583A3",
"A. c #5478A3",
"jo c #6681A9",
"V@ c #6F87AD",
"o+ c #8491AE",
"I+ c #728BAF",
"0  c #8A96B3",
"f@ c #758FB4",
"eO c #6C8CB4",
" X c #99A1B7",
"9+ c #96A0B9",
"M@ c #7B97BB",
"3o c #879EBD",
"#O c #7297C0",
"l+ c #819FC2",
"_X c #96A6C2",
":o c #8AA2C2",
"S  c #93A8C6",
" O c #84A3C7",
"H  c #142558",
"a@ c #8DACCE",
"YO c #17295B",
"y@ c #93B1D1",
"p@ c #90B0D2",
"OO c #1D2E60",
"J+ c #3F83CF",
"(  c #A2BCD7",
"-. c #A5BDD8",
"~+ c #BACADC",
"=@ c #ABC2DC",
"<o c #2F406F",
"4  c #DBDEE6",
"bo c #A2C5E5",
"{+ c #A5C9E8",
"]O c #A8CDEB",
"4. c #E1E6ED",
"a. c #324D79",
"kO c #6FABE8",
"Ko c #C3D9EE",
"+O c #354B7A",
"y  c #EAECF1",
"I. c #E7EBF1",
"*. c #B4D4EF",
"M  c #EDF0F4",
"VO c #57A0EB",
"v  c #EDF0F5",
"UO c #445681",
"U  c #F0F4F8",
"W  c #EDF3F8",
"yX c #D5E8F7",
".. c #F0F4F9",
"7o c #C9E4F9",
"bO c #475A85",
"1O c #F0F7FC",
"[o c #E1EFFB",
"8. c #F6F9FC",
"so c #EAF2FB",
"po c #EAF5FC",
"<O c #D5EBFC",
"'o c #D2EAFC",
"w. c #EDF6FD",
"Bo c #A8D9FC",
"~. c #C9E7FD",
"0o c #C6E6FD",
"n. c #EAF5FE",
"*X c #E4F3FE",
"0@ c #4D5F89",
"8O c #4A5E89",
"ko c #475D89",
"|O c #536790",
"mX c #747E9D",
"9X c #838CA7",
"_  c #7A8CAB",
"Eo c #6582AC",
"-  c #929AB4",
"PO c #7490B5",
"`. c #7198C1",
")  c #92A9C5",
"8  c #ADB8CD",
"]+ c #3E78C5",
"1. c #BFC4D2",
"f  c #A7B9D1",
"S. c #B6C1D3",
"|+ c #92B2D4",
"k+ c #92B5D6",
/* pixels */
"                                                                ",
"                            . X o                               ",
"                    O + @ # $ % & * = - ; :                     ",
"                > , < 1 2 3 4 5 6 7 8 9 0 q w e                 ",
"              < r t y y y u i p a s d f g h j k l               ",
"            z i x c v b n m M N B V C Z A S D F G H             ",
"          J K L P I U Y T R E W Q ! ~ ^ / ( ) _ ` ' ]           ",
"        [ { } |  ...X.o.O.O.+.@.#.$.%.&.*.=.-.;.:.>.,.<.        ",
"      1.2.3.4.5.6.7.8.9.0.9.q.w.e.r.t.y.u.i.p.a.s.d.f.g.h.      ",
"      j.k.l.z. .x.8.9.c.c.v.b.n.m.M.N.B.V.C.Z.A.S.D.F.G.H.      ",
"    J.K.L.P.I.U.Y.T.R.c.v.E.W.Q.!.~.^./.(.)._.`.'.].[.{.}.|.    ",
"     X.XXXoXOX+X@X#X#X$X%X&X*X=X-X;X:X>X,X<X1X2X3X4X5X6X7X8X    ",
"  9X0XqXwXeX5.rXtXyXuXiXpXQ.aXsXdXfXgXhXjXkXlXzXxXs cXvXbXnX    ",
"  mXMXNXBXVXCXZXAXSXDXFXGXHXJX;XKXLXPXIXUXYXTXRXEXWXQX!X~X^X/X  ",
"  (X)X_X`X'X]X[X{X}X|X o.oXooogXOo+o@o#o$o%o&o*o=o-o;o:o>o,o<o  ",
"  1o2o3o4o5o6o7o8o9o0oN.qo>Xwoeorotoyouoiopoaosodofogohojokolo  ",
"  zoxocovobonomoMofX>XNoroBoVoCoZoAoSoDoFoGoGoHoJoKoLoPoIoUoYo  ",
"  ToRoEoWoQo!o~o^oVo/o(o)o/o_oMo`o'oDo]oGoGoAX[o{o}o|o O.OXOoO  ",
"  OO+O@O#O$O%O&O*O=O/o-O;O:O>O,O<OioFoGo1OAX2O3O_.4O5O6O7O8O9O  ",
"  0OqOwOeOrOtOyOuOiOpOaOsOdOfOgO%ohOGoGoAX2OjOkOlOzOxOcOvObO    ",
"    nO7XmOMONO*.BOVOCOZO<OgOAO]oSO1OGoAXDOFOGOHOJOKOLOPOIOUO    ",
"    YOTOROEOWOQO!O1X~O^O2OFoSOGo1O/OhO(O)O_O`O'O]O[O{O}O|O +    ",
"    YO.+X+o+O+++@+#+$+%+&+*+1O/O=+-+;+)O:+>+,+<+1+2+3+4+5+      ",
"      6+7+8+9+0+q+w+e+r+t+y+u+i+p+a+s+d+f+g+h+j+k+l+z+x+c+      ",
"        v+b+n+m+M+N+B+V+C+Z+A+S+D+F+G+H+J+K+L+xOP+I+U+Y+        ",
"        T+R+E+W+Q+!+~+^+/+(+)+_+`+'+]+[+{+}+|+ @.@X@o@O@        ",
"          +@@@#@$@%@&@*@=@-@;@:@>@,@<@1@2@3@4@5@6@7@O@          ",
"            8@9@0@q@w@e@r@t@y@u@i@p@a@s@d@f@g@h@j@O@            ",
"              k@l@z@x@c@v@b@n@m@M@N@B@V@C@Z@A@S@                ",
"                  l@D@F@G@H@J@K@L@P@I@U@Y@T@O@                  ",
"                         +R@E@W@Y+Q@!@O@                        ",
"                                                                "
};
